<?xml version="1.0" encoding="utf-8"?>
<!-- Generator: Adobe Illustrator 23.0.3, SVG Export Plug-In . SVG Version: 6.00 Build 0)  -->
<svg version="1.1" id="Layer_1" xmlns="http://www.w3.org/2000/svg" xmlns:xlink="http://www.w3.org/1999/xlink" x="0px" y="0px"
	 viewBox="0 0 77 64" style="enable-background:new 0 0 77 64;" xml:space="preserve">
<style type="text/css">
	.st0{fill:#FFFFFF;}
	.st1{fill:#FFFFFF;}
	.st2{fill:#FFFFFF;}
</style>
<g>
	<path class="st0" d="M38.5,38.06c0.55,0,0.76,0.4,0.76,0.82v10.9c0,1.02,0.59,1.71,1.63,1.71c1.07,0,1.63-0.67,1.63-1.71V29.52
		c0-1.57,0.27-2.59,1.56-3.99c0.36-0.4,4.38-4.47,5.5-5.62c0.15-0.15,0.6-0.51,0.6-1.24c0-0.81-0.64-1.43-1.47-1.43
		c-0.63,0-0.95,0.35-1.34,0.76c-1.17,1.22-5.59,5.81-5.93,6.16c-0.56,0.58-1.53,1.26-2.93,1.26c-1.4,0-2.37-0.68-2.93-1.26
		c-0.34-0.35-4.76-4.94-5.93-6.16c-0.39-0.41-0.71-0.76-1.34-0.76c-0.82,0-1.47,0.62-1.47,1.43c0,0.73,0.45,1.09,0.6,1.24
		c1.13,1.15,5.14,5.22,5.5,5.62c1.28,1.4,1.56,2.42,1.56,3.99v20.26c0,1.04,0.56,1.71,1.63,1.71c1.04,0,1.63-0.69,1.63-1.71v-10.9
		C37.74,38.46,37.95,38.06,38.5,38.06 M41.34,21.38c0,1.57-1.27,2.84-2.84,2.84c-1.57,0-2.84-1.27-2.84-2.84
		c0-1.57,1.27-2.84,2.84-2.84C40.07,18.54,41.34,19.81,41.34,21.38"/>
	<path class="st1" d="M42.74,62.86c-1.55,0-2.68-1.11-2.68-2.67c0-1.77,1.48-2.58,3.24-3.57c10.62-5.97,23.82-18.01,23.82-30.22
		c0-11.58-7.77-15.85-13.94-15.85c-4.81,0-7.05,1.32-8.73,2.31c-0.52,0.31-1.15,0.66-1.86,0.66c-1.39,0-2.54-1.1-2.54-2.84
		c0-0.91,0.47-1.82,1.5-2.94c2.53-2.76,7.54-6.58,14.25-6.58c11.08,0,20.23,7.84,20.23,21.71c0,15.84-15.38,29.54-29.14,38.09
		C46.55,61.16,44.12,62.86,42.74,62.86"/>
	<path class="st2" d="M34.26,62.86c1.55,0,2.68-1.11,2.68-2.67c0-1.77-1.48-2.58-3.24-3.57C23.08,50.65,9.88,38.61,9.88,26.4
		c0-11.58,7.77-15.85,13.94-15.85c4.81,0,7.05,1.32,8.73,2.31c0.52,0.31,1.15,0.66,1.86,0.66c1.39,0,2.54-1.1,2.54-2.84
		c0-0.91-0.47-1.82-1.5-2.94c-2.53-2.76-7.54-6.58-14.25-6.58C10.1,1.14,0.95,8.99,0.95,22.85c0,15.84,15.38,29.54,29.14,38.09
		C30.45,61.16,32.88,62.86,34.26,62.86"/>
</g>
</svg>
